<svg width="100%" height="100%" xmlns="http://www.w3.org/2000/svg" viewBox="0 0 100 100" preserveAspectRatio="xMidYMid" class="lds-wedges">
    <g transform="translate(50,50)">
        <g transform="scale(0.7)">
            <g transform="translate(-50,-50)">
                <g>
                    <animateTransform attributeName="transform" type="rotate" calcMode="linear" values="0 50 50;360 50 50" keyTimes="0;1" dur="1s" begin="0s" repeatCount="indefinite"></animateTransform>
                    <path d="M50 50L50 0A50 50 0 0 1 100 50Z" fill-opacity="0.8" fill="#00b945"></path>
                </g>

                <g>
                    <animateTransform attributeName="transform" type="rotate" calcMode="linear" values="0 50 50;360 50 50" keyTimes="0;1" dur="1.3333333333333333s" begin="0s" repeatCount="indefinite"></animateTransform>
                    <path d="M50 50L50 0A50 50 0 0 1 100 50Z" transform="rotate(90 50 50)" fill-opacity="0.8" fill="#00782d"></path>
                </g>

                <g>
                    <animateTransform attributeName="transform" type="rotate" calcMode="linear" values="0 50 50;360 50 50" keyTimes="0;1" dur="2s" begin="0s" repeatCount="indefinite"></animateTransform>
                    <path d="M50 50L50 0A50 50 0 0 1 100 50Z" transform="rotate(180 50 50)" fill-opacity="0.8" fill="#63dc90"></path>
                </g>

                <g>
                    <animateTransform attributeName="transform" type="rotate" calcMode="linear" values="0 50 50;360 50 50" keyTimes="0;1" dur="4s" begin="0s" repeatCount="indefinite"></animateTransform>
                    <path d="M50 50L50 0A50 50 0 0 1 100 50Z" transform="rotate(270 50 50)" fill-opacity="0.8" fill="#ffffff"></path>
                </g>
            </g>
        </g>
    </g>
</svg>
